<?xml version="1.0" encoding="utf-8"?>
<!-- Generator: Adobe Illustrator 17.0.0, SVG Export Plug-In . SVG Version: 6.00 Build 0)  -->
<!DOCTYPE svg PUBLIC "-//W3C//DTD SVG 1.1//EN" "http://www.w3.org/Graphics/SVG/1.1/DTD/svg11.dtd">
<svg version="1.1" id="Layer_1" xmlns="http://www.w3.org/2000/svg" xmlns:xlink="http://www.w3.org/1999/xlink" x="0px" y="0px"
	 width="24.5px" height="47px" viewBox="0 0 24.5 47" enable-background="new 0 0 24.5 47" xml:space="preserve">
<g>
	<polygon fill="#FFFFFF" points="6.655,40.375 13.817,46.015 23.664,46.015 23.664,40.375 	"/>
	<polyline fill="#FFFFFF" points="0.836,13.348 6.954,13.348 13.817,18.601 0.836,18.719 	"/>
	<rect x="13.751" y="13.348" fill="#FFFFFF" width="9.913" height="5.371"/>
	<polygon fill="#A7A9AC" points="6.636,40.327 6.655,18.695 13.817,18.695 13.817,45.757 	"/>
	<polygon fill="#FFFFFF" points="6.603,40.344 13.81,45.865 23.649,45.865 23.649,40.344 	"/>
	<g>
		
			<line fill="none" stroke="#6D6E71" stroke-width="0.1383" stroke-miterlimit="10" x1="23.649" y1="40.275" x2="13.811" y2="40.275"/>
		
			<line fill="none" stroke="#6D6E71" stroke-width="0.1383" stroke-miterlimit="10" x1="23.649" y1="40.64" x2="13.811" y2="40.64"/>
		
			<line fill="none" stroke="#6D6E71" stroke-width="0.1383" stroke-miterlimit="10" x1="23.649" y1="41.004" x2="13.811" y2="41.004"/>
		
			<line fill="none" stroke="#6D6E71" stroke-width="0.1383" stroke-miterlimit="10" x1="23.649" y1="41.368" x2="13.811" y2="41.368"/>
		
			<line fill="none" stroke="#6D6E71" stroke-width="0.1383" stroke-miterlimit="10" x1="23.649" y1="41.732" x2="13.811" y2="41.732"/>
		
			<line fill="none" stroke="#6D6E71" stroke-width="0.1383" stroke-miterlimit="10" x1="23.649" y1="42.097" x2="13.811" y2="42.097"/>
		
			<line fill="none" stroke="#6D6E71" stroke-width="0.1383" stroke-miterlimit="10" x1="23.649" y1="42.461" x2="13.811" y2="42.461"/>
		
			<line fill="none" stroke="#6D6E71" stroke-width="0.1383" stroke-miterlimit="10" x1="23.649" y1="42.825" x2="13.811" y2="42.825"/>
		
			<line fill="none" stroke="#6D6E71" stroke-width="0.1383" stroke-miterlimit="10" x1="23.649" y1="43.189" x2="13.811" y2="43.189"/>
		
			<line fill="none" stroke="#6D6E71" stroke-width="0.1383" stroke-miterlimit="10" x1="23.649" y1="43.553" x2="13.811" y2="43.553"/>
		
			<line fill="none" stroke="#6D6E71" stroke-width="0.1383" stroke-miterlimit="10" x1="23.649" y1="43.918" x2="13.811" y2="43.918"/>
		
			<line fill="none" stroke="#6D6E71" stroke-width="0.1383" stroke-miterlimit="10" x1="23.649" y1="44.282" x2="13.811" y2="44.282"/>
		
			<line fill="none" stroke="#6D6E71" stroke-width="0.1383" stroke-miterlimit="10" x1="23.649" y1="44.646" x2="13.811" y2="44.646"/>
		
			<line fill="none" stroke="#6D6E71" stroke-width="0.1383" stroke-miterlimit="10" x1="23.649" y1="45.01" x2="13.811" y2="45.01"/>
		
			<line fill="none" stroke="#6D6E71" stroke-width="0.1383" stroke-miterlimit="10" x1="23.649" y1="45.375" x2="13.811" y2="45.375"/>
		
			<line fill="none" stroke="#6D6E71" stroke-width="0.1383" stroke-miterlimit="10" x1="23.649" y1="45.739" x2="13.811" y2="45.739"/>
	</g>
	<g>
		
			<line fill="none" stroke="#6D6E71" stroke-width="0.1383" stroke-miterlimit="10" x1="23.701" y1="13.404" x2="0.799" y2="13.404"/>
		
			<line fill="none" stroke="#6D6E71" stroke-width="0.1383" stroke-miterlimit="10" x1="23.701" y1="13.755" x2="0.799" y2="13.755"/>
		
			<line fill="none" stroke="#6D6E71" stroke-width="0.1383" stroke-miterlimit="10" x1="23.701" y1="14.105" x2="0.799" y2="14.105"/>
		
			<line fill="none" stroke="#6D6E71" stroke-width="0.1383" stroke-miterlimit="10" x1="23.701" y1="14.456" x2="0.799" y2="14.456"/>
		
			<line fill="none" stroke="#6D6E71" stroke-width="0.1383" stroke-miterlimit="10" x1="23.701" y1="14.807" x2="0.799" y2="14.807"/>
		
			<line fill="none" stroke="#6D6E71" stroke-width="0.1383" stroke-miterlimit="10" x1="23.701" y1="15.157" x2="0.799" y2="15.157"/>
		
			<line fill="none" stroke="#6D6E71" stroke-width="0.1383" stroke-miterlimit="10" x1="23.701" y1="15.508" x2="0.799" y2="15.508"/>
		
			<line fill="none" stroke="#6D6E71" stroke-width="0.1383" stroke-miterlimit="10" x1="23.701" y1="15.859" x2="0.799" y2="15.859"/>
		
			<line fill="none" stroke="#6D6E71" stroke-width="0.1383" stroke-miterlimit="10" x1="23.701" y1="16.209" x2="0.799" y2="16.209"/>
		<line fill="none" stroke="#6D6E71" stroke-width="0.1383" stroke-miterlimit="10" x1="23.701" y1="16.56" x2="0.799" y2="16.56"/>
		<line fill="none" stroke="#6D6E71" stroke-width="0.1383" stroke-miterlimit="10" x1="23.701" y1="16.91" x2="0.799" y2="16.91"/>
		
			<line fill="none" stroke="#6D6E71" stroke-width="0.1383" stroke-miterlimit="10" x1="23.701" y1="17.261" x2="0.799" y2="17.261"/>
		
			<line fill="none" stroke="#6D6E71" stroke-width="0.1383" stroke-miterlimit="10" x1="23.701" y1="17.612" x2="0.799" y2="17.612"/>
		
			<line fill="none" stroke="#6D6E71" stroke-width="0.1383" stroke-miterlimit="10" x1="23.701" y1="17.962" x2="0.799" y2="17.962"/>
		
			<line fill="none" stroke="#6D6E71" stroke-width="0.1383" stroke-miterlimit="10" x1="23.701" y1="18.313" x2="0.799" y2="18.313"/>
		
			<line fill="none" stroke="#6D6E71" stroke-width="0.1383" stroke-miterlimit="10" x1="23.701" y1="18.664" x2="0.799" y2="18.664"/>
	</g>
	<polygon fill="#FFFFFF" points="13.817,18.601 13.817,0.985 6.812,4.043 6.82,13.348 	"/>
</g>
</svg>
